<svg width="24.000000" height="24.000000" viewBox="0 0 24 24" fill="none" xmlns="http://www.w3.org/2000/svg" xmlns:xlink="http://www.w3.org/1999/xlink">
	<desc>
			Created with Pixso.
	</desc>
	<defs/>
	<path d="M12 0C5.37256 0 0 5.3725 0 12C0 18.6275 5.37256 24 12 24C18.6274 24 24 18.6275 24 12C24 5.3725 18.6274 0 12 0ZM14.8425 8.29248L13.0388 8.29248C12.825 8.29248 12.5874 8.57373 12.5874 8.94751L12.5874 10.25L14.8438 10.25L14.5024 12.1075L12.5874 12.1075L12.5874 17.6838L10.4587 17.6838L10.4587 12.1075L8.52759 12.1075L8.52759 10.25L10.4587 10.25L10.4587 9.15747C10.4587 7.59003 11.5461 6.31622 13.0388 6.31622L14.8425 6.31622L14.8425 8.29248Z" fill="#BFD2F8" fill-opacity="1.000000" fill-rule="nonzero"/>
</svg>
