<svg width="24.000000" height="24.000000" viewBox="0 0 24 24" fill="none" xmlns="http://www.w3.org/2000/svg" xmlns:xlink="http://www.w3.org/1999/xlink">
	<desc>
			Created with Pixso.
	</desc>
	<defs/>
	<path d="M12 0C5.37256 0 0 5.3725 0 12C0 18.6275 5.37256 24 12 24C18.6274 24 24 18.6275 24 12C24 5.3725 18.6274 0 12 0ZM9.0625 16.9738L6.63257 16.9738L6.63257 9.15375L9.0625 9.15375L9.0625 16.9738ZM7.83252 8.19373C7.06494 8.19373 6.56885 7.65002 6.56885 6.97748C6.56885 6.29126 7.08008 5.76373 7.86377 5.76373C8.64746 5.76373 9.12744 6.29126 9.14258 6.97748C9.14258 7.65002 8.64746 8.19373 7.83252 8.19373ZM17.9375 16.9738L15.5076 16.9738L15.5076 12.64C15.5076 11.6312 15.155 10.9462 14.2764 10.9462C13.605 10.9462 13.2063 11.41 13.03 11.8563C12.9651 12.015 12.9487 12.24 12.9487 12.4637L12.9487 16.9725L10.5176 16.9725L10.5176 11.6475C10.5176 10.6713 10.4863 9.85498 10.4539 9.15253L12.5649 9.15253L12.6763 10.2388L12.7251 10.2388C13.0449 9.72876 13.8289 8.97626 15.1399 8.97626C16.7388 8.97626 17.9375 10.0475 17.9375 12.35L17.9375 16.9738Z" fill="#BFD2F8" fill-opacity="1.000000" fill-rule="nonzero"/>
</svg>
