<svg width="24.000000" height="24.000000" viewBox="0 0 24 24" fill="none" xmlns="http://www.w3.org/2000/svg" xmlns:xlink="http://www.w3.org/1999/xlink">
	<desc>
			Created with Pixso.
	</desc>
	<defs/>
	<path id="Vector" d="M16.8726 8.31375C16.7683 8.04406 16.6089 7.79917 16.4043 7.59486C16.2 7.39055 15.9548 7.23134 15.6851 7.1275C15.3135 6.98991 14.9211 6.91718 14.5249 6.9125C13.8662 6.8825 13.6687 6.875 12 6.875C10.3313 6.875 10.1338 6.8825 9.4751 6.9125C9.07837 6.91704 8.68555 6.98976 8.31372 7.1275C8.04395 7.23163 7.79907 7.39109 7.59497 7.59562C7.39062 7.80015 7.23145 8.0452 7.12744 8.315C6.98999 8.68649 6.91724 9.07887 6.9126 9.475C6.88257 10.1337 6.875 10.3312 6.875 12C6.875 13.6687 6.88257 13.8662 6.9126 14.525C6.91699 14.9215 6.98975 15.3144 7.12744 15.6862C7.23169 15.9559 7.39111 16.2008 7.5957 16.4051C7.80005 16.6094 8.04517 16.7687 8.31494 16.8725C8.68652 17.0101 9.07886 17.0828 9.4751 17.0875C10.1338 17.1175 10.3313 17.1237 12 17.1237C13.6687 17.1237 13.8662 17.1175 14.5249 17.0862C14.9214 17.0821 15.3142 17.0098 15.6863 16.8725C15.9561 16.7684 16.2009 16.6089 16.405 16.4044C16.6094 16.1999 16.7686 15.9548 16.8726 15.685C17.01 15.3135 17.0828 14.9211 17.0874 14.525C17.1174 13.8662 17.1238 13.6687 17.1238 12C17.1238 10.3312 17.1174 10.1337 17.0862 9.475C17.082 9.07852 17.0098 8.68571 16.8726 8.31375ZM12 15.21C11.3652 15.21 10.7444 15.0217 10.2166 14.669C9.68872 14.3163 9.27734 13.815 9.03442 13.2284C8.7915 12.6419 8.72778 11.9964 8.85156 11.3738C8.97559 10.7511 9.28125 10.1791 9.73022 9.73018C10.1792 9.28126 10.751 8.97554 11.3738 8.85168C11.9963 8.72782 12.6418 8.79139 13.2285 9.03434C13.8149 9.2773 14.3164 9.68874 14.6689 10.2166C15.0217 10.7445 15.21 11.3651 15.21 12C15.21 12.8513 14.8718 13.6678 14.2698 14.2698C13.6677 14.8718 12.8513 15.21 12 15.21ZM15.3362 9.41375C15.188 9.41375 15.043 9.36976 14.9197 9.28735C14.7961 9.20494 14.7002 9.08781 14.6433 8.95076C14.5867 8.81372 14.5718 8.66292 14.6006 8.51743C14.6296 8.37194 14.7009 8.23831 14.8059 8.13342C14.9109 8.02853 15.0444 7.9571 15.1899 7.92816C15.3354 7.89922 15.4863 7.91407 15.6233 7.97084C15.7603 8.0276 15.8774 8.12373 15.96 8.24707C16.0422 8.37041 16.0862 8.51541 16.0862 8.66375C16.0862 8.86266 16.0073 9.05343 15.8667 9.19408C15.7258 9.33473 15.5352 9.41375 15.3362 9.41375ZM14.0837 12C14.0837 12.4121 13.9614 12.815 13.7327 13.1577C13.5037 13.5003 13.1782 13.7674 12.7974 13.9251C12.4167 14.0828 11.9978 14.1241 11.5935 14.0437C11.1892 13.9633 10.8179 13.7648 10.5266 13.4734C10.2351 13.182 10.0366 12.8107 9.9563 12.4065C9.87598 12.0023 9.91724 11.5833 10.075 11.2026C10.2327 10.8218 10.4998 10.4964 10.8423 10.2674C11.1851 10.0385 11.5879 9.91625 12 9.91625C12.5527 9.91625 13.0828 10.1358 13.4734 10.5266C13.8643 10.9173 14.0837 11.4474 14.0837 12ZM12 0C9.62671 0 7.30664 0.703788 5.33325 2.02236C3.35986 3.34094 1.82178 5.21508 0.91333 7.4078C0.00512695 9.60051 -0.232422 12.0133 0.230469 14.3411C0.693604 16.6689 1.83643 18.807 3.51465 20.4853C5.19287 22.1635 7.33105 23.3064 9.65894 23.7694C11.9866 24.2324 14.3994 23.9948 16.5923 23.0865C18.7849 22.1783 20.6592 20.6402 21.9775 18.6668C23.2961 16.6934 24 14.3734 24 12C24 8.8174 22.7358 5.76515 20.4854 3.51472C18.2349 1.26428 15.1826 0 12 0L12 0ZM18.2124 14.5762C18.2019 15.0949 18.1035 15.608 17.9211 16.0937C17.7607 16.5088 17.5151 16.8858 17.2004 17.2005C16.8857 17.5152 16.5088 17.7607 16.0938 17.9212C15.6084 18.1033 15.0957 18.2018 14.5774 18.2125C13.9099 18.2425 13.6975 18.25 12 18.25C10.3025 18.25 10.0901 18.2425 9.42261 18.2125C8.9043 18.2018 8.3916 18.1033 7.90625 17.9212C7.49121 17.7607 7.11426 17.5152 6.79956 17.2005C6.48486 16.8858 6.23926 16.5088 6.07886 16.0937C5.89673 15.6084 5.79834 15.0957 5.7876 14.5775C5.75757 13.91 5.75 13.6975 5.75 12C5.75 10.3025 5.75757 10.09 5.7876 9.4225C5.79785 8.90433 5.896 8.39165 6.07739 7.90625C6.23804 7.4908 6.48364 7.1135 6.79858 6.79856C7.11353 6.48363 7.49072 6.23802 7.90625 6.0775C8.3916 5.89588 8.9043 5.79782 9.42261 5.7875C10.0901 5.7575 10.3025 5.75 12 5.75C13.6975 5.75 13.9099 5.7575 14.5774 5.7875C15.0957 5.79782 15.6084 5.89588 16.0938 6.0775C16.509 6.23817 16.886 6.48384 17.2007 6.79877C17.5154 7.11369 17.761 7.49092 17.9211 7.90625C18.1033 8.39158 18.2017 8.90426 18.2124 9.4225C18.2424 10.09 18.25 10.3025 18.25 12C18.25 13.6975 18.2424 13.91 18.2124 14.5775L18.2124 14.5762Z" fill="#1F2B6C" fill-opacity="1.000000" fill-rule="nonzero"/>
</svg>
