<svg width="24.000000" height="24.000000" viewBox="0 0 24 24" fill="none" xmlns="http://www.w3.org/2000/svg" xmlns:xlink="http://www.w3.org/1999/xlink">
	<desc>
			Created with Pixso.
	</desc>
	<defs/>
	<path d="M16.8726 8.31372C16.7683 8.04407 16.6089 7.79919 16.4043 7.59485C16.2 7.39056 15.9548 7.23132 15.6851 7.1275C15.3135 6.98993 14.9211 6.91718 14.5249 6.91248C13.8662 6.88251 13.6687 6.875 12 6.875C10.3313 6.875 10.1338 6.88251 9.4751 6.91248C9.07837 6.91705 8.68555 6.98975 8.31372 7.1275C8.04395 7.23163 7.79907 7.39111 7.59497 7.59564C7.39062 7.80017 7.23145 8.04523 7.12744 8.315C6.98999 8.68646 6.91724 9.07886 6.9126 9.47498C6.88257 10.1337 6.875 10.3312 6.875 12C6.875 13.6688 6.88257 13.8663 6.9126 14.525C6.91699 14.9216 6.98975 15.3143 7.12744 15.6862C7.23169 15.9559 7.39111 16.2008 7.5957 16.4052C7.80005 16.6094 8.04517 16.7687 8.31494 16.8725C8.68652 17.0101 9.07886 17.0828 9.4751 17.0875C10.1338 17.1175 10.3313 17.1237 12 17.1237C13.6687 17.1237 13.8662 17.1175 14.5249 17.0862C14.9214 17.0821 15.3142 17.0098 15.6863 16.8725C15.9561 16.7684 16.2009 16.6089 16.405 16.4044C16.6094 16.1998 16.7686 15.9548 16.8726 15.685C17.01 15.3135 17.0828 14.9211 17.0874 14.525C17.1174 13.8663 17.1238 13.6688 17.1238 12C17.1238 10.3312 17.1174 10.1337 17.0862 9.47498C17.082 9.07849 17.0098 8.68573 16.8726 8.31372ZM12 15.21C11.3652 15.21 10.7444 15.0217 10.2166 14.669C9.68872 14.3163 9.27734 13.8149 9.03442 13.2284C8.7915 12.6418 8.72778 11.9965 8.85156 11.3738C8.97559 10.7511 9.28125 10.1791 9.73022 9.73016C10.1792 9.28125 10.751 8.97552 11.3738 8.85168C11.9963 8.72784 12.6418 8.79138 13.2285 9.03436C13.8149 9.27728 14.3164 9.68872 14.6689 10.2166C15.0217 10.7445 15.21 11.3651 15.21 12C15.21 12.8513 14.8718 13.6678 14.2698 14.2698C13.6677 14.8718 12.8513 15.21 12 15.21ZM15.3362 9.41376C15.188 9.41376 15.043 9.36975 14.9197 9.28735C14.7961 9.20496 14.7002 9.08783 14.6433 8.95074C14.5867 8.81372 14.5718 8.6629 14.6006 8.51746C14.6296 8.37195 14.7009 8.23828 14.8059 8.13342C14.9109 8.0285 15.0444 7.95709 15.1899 7.92816C15.3354 7.89923 15.4863 7.91406 15.6233 7.97083C15.7603 8.02759 15.8774 8.12372 15.96 8.24707C16.0422 8.37042 16.0862 8.51544 16.0862 8.66376C16.0862 8.86267 16.0073 9.05341 15.8667 9.19409C15.7258 9.33472 15.5352 9.41376 15.3362 9.41376ZM14.0837 12C14.0837 12.4121 13.9614 12.815 13.7327 13.1577C13.5037 13.5004 13.1782 13.7674 12.7974 13.9251C12.4167 14.0828 11.9978 14.1241 11.5935 14.0437C11.1892 13.9633 10.8179 13.7648 10.5266 13.4734C10.2351 13.182 10.0366 12.8107 9.9563 12.4065C9.87598 12.0023 9.91724 11.5833 10.075 11.2026C10.2327 10.8218 10.4998 10.4964 10.8423 10.2674C11.1851 10.0385 11.5879 9.91626 12 9.91626C12.5527 9.91626 13.0828 10.1358 13.4734 10.5266C13.8643 10.9174 14.0837 11.4473 14.0837 12ZM12 0C9.62671 0 7.30664 0.703796 5.33325 2.02234C3.35986 3.34094 1.82178 5.21509 0.91333 7.40778C0.00512695 9.60052 -0.232422 12.0133 0.230469 14.3411C0.693604 16.6688 1.83643 18.8071 3.51465 20.4853C5.19287 22.1635 7.33105 23.3064 9.65894 23.7694C11.9866 24.2324 14.3994 23.9948 16.5923 23.0865C18.7849 22.1783 20.6592 20.6403 21.9775 18.6669C23.2961 16.6934 24 14.3734 24 12C24 8.81738 22.7358 5.76514 20.4854 3.51471C18.2349 1.26428 15.1826 0 12 0L12 0ZM18.2124 14.5762C18.2019 15.0949 18.1035 15.608 17.9211 16.0938C17.7607 16.5089 17.5151 16.8858 17.2004 17.2005C16.8857 17.5153 16.5088 17.7607 16.0938 17.9213C15.6084 18.1033 15.0957 18.2018 14.5774 18.2125C13.9099 18.2425 13.6975 18.25 12 18.25C10.3025 18.25 10.0901 18.2425 9.42261 18.2125C8.9043 18.2018 8.3916 18.1033 7.90625 17.9213C7.49121 17.7607 7.11426 17.5153 6.79956 17.2005C6.48486 16.8858 6.23926 16.5089 6.07886 16.0938C5.89673 15.6084 5.79834 15.0958 5.7876 14.5775C5.75757 13.91 5.75 13.6975 5.75 12C5.75 10.3025 5.75757 10.09 5.7876 9.42249C5.79785 8.90436 5.896 8.39166 6.07739 7.90625C6.23804 7.49078 6.48364 7.11353 6.79858 6.79858C7.11353 6.48364 7.49072 6.23804 7.90625 6.07751C8.3916 5.89587 8.9043 5.79785 9.42261 5.78748C10.0901 5.75751 10.3025 5.75 12 5.75C13.6975 5.75 13.9099 5.75751 14.5774 5.78748C15.0957 5.79785 15.6084 5.89587 16.0938 6.07751C16.509 6.23816 16.886 6.48383 17.2007 6.79877C17.5154 7.11371 17.761 7.49091 17.9211 7.90625C18.1033 8.3916 18.2017 8.90424 18.2124 9.42249C18.2424 10.09 18.25 10.3025 18.25 12C18.25 13.6975 18.2424 13.91 18.2124 14.5775L18.2124 14.5762Z" fill="#BFD2F8" fill-opacity="1.000000" fill-rule="nonzero"/>
</svg>
