<svg width="32.000000" height="32.000000" viewBox="0 0 32 32" fill="none" xmlns="http://www.w3.org/2000/svg" xmlns:xlink="http://www.w3.org/1999/xlink">
	<desc>
			Created with Pixso.
	</desc>
	<defs>
		<clipPath id="clip1_96">
			<rect id="medical 1" width="32.000000" height="32.000000" fill="white" fill-opacity="0"/>
		</clipPath>
	</defs>
	<rect id="medical 1" width="32.000000" height="32.000000" fill="#FFFFFF" fill-opacity="0"/>
	<g clip-path="url(#clip1_96)">
		<path id="Vector" d="M11.7603 15.0532C11.6353 15.1772 11.5359 15.3247 11.4683 15.4871C11.4006 15.6497 11.3657 15.824 11.3657 16C11.3657 16.176 11.4006 16.3503 11.4683 16.5127C11.5359 16.6753 11.6353 16.8228 11.7603 16.9465C12.01 17.1948 12.3479 17.3342 12.7002 17.3342C13.0525 17.3342 13.3904 17.1948 13.6401 16.9465C13.7651 16.8228 13.8643 16.6753 13.9319 16.5127C13.9998 16.3503 14.0344 16.176 14.0344 16C14.0344 15.824 13.9998 15.6497 13.9319 15.4871C13.8643 15.3247 13.7651 15.1772 13.6401 15.0532C13.3904 14.8049 13.0525 14.6655 12.7002 14.6655C12.3479 14.6655 12.01 14.8049 11.7603 15.0532ZM15.0535 18.3599C14.8052 18.6099 14.6658 18.9478 14.6658 19.3C14.6658 19.6521 14.8052 19.9902 15.0535 20.24C15.1775 20.365 15.325 20.4641 15.4873 20.5317C15.6499 20.5996 15.8242 20.6343 16.0002 20.6343C16.1763 20.6343 16.3503 20.5996 16.5129 20.5317C16.6753 20.4641 16.8228 20.365 16.9468 20.24C17.1951 19.9902 17.3345 19.6521 17.3345 19.3C17.3345 18.9478 17.1951 18.6099 16.9468 18.3599C16.8228 18.2349 16.6753 18.1357 16.5129 18.0681C16.3503 18.0005 16.1763 17.9656 16.0002 17.9656C15.8242 17.9656 15.6499 18.0005 15.4873 18.0681C15.325 18.1357 15.1775 18.2349 15.0535 18.3599ZM27.0535 5.02661C25.603 3.56421 23.6445 2.71753 21.5857 2.66309C19.5266 2.6084 17.5261 3.34985 16.0002 4.73315C14.4812 3.36597 12.4968 2.63184 10.4539 2.6814C8.41089 2.7312 6.46411 3.56055 5.01343 5C3.57227 6.45312 2.74268 8.40332 2.69556 10.4495C2.64844 12.4956 3.38721 14.4819 4.76025 16C3.73364 17.1475 3.0603 18.5669 2.82031 20.0876C2.58057 21.6084 2.78491 23.166 3.40845 24.5737C4.03198 25.9814 5.04858 27.1792 6.33594 28.0234C7.62354 28.8677 9.1272 29.3225 10.6667 29.3333C12.6404 29.3354 14.5432 28.5981 16.0002 27.2666C17.5198 28.6377 19.5071 29.3743 21.5532 29.3247C23.5994 29.2751 25.5488 28.4431 27.0002 27C28.4397 25.5452 29.2668 23.594 29.3113 21.5479C29.356 19.5017 28.6147 17.5161 27.2402 16C28.6147 14.4836 29.356 12.4983 29.3113 10.4521C29.2668 8.40601 28.4397 6.45483 27.0002 5L27.0535 5.02661ZM25.1067 6.89331C26.0339 7.84717 26.5713 9.11304 26.6133 10.4426C26.6553 11.7722 26.1987 13.0696 25.3335 14.0798L17.9202 6.6665C18.9395 5.8208 20.2327 5.3772 21.5564 5.41895C22.8801 5.46069 24.1428 5.98511 25.1067 6.89331ZM6.89355 25.1067C5.96631 24.1528 5.42896 22.8867 5.38696 21.5571C5.34497 20.2275 5.80151 18.9304 6.66675 17.9199L14.1335 25.3867C13.103 26.2373 11.7954 26.679 10.46 26.6272C9.12476 26.5757 7.85522 26.0344 6.89355 25.1067ZM25.1067 25.1067C24.0945 26.0747 22.7476 26.6152 21.3469 26.6152C19.946 26.6152 18.5991 26.0747 17.5869 25.1067L6.92017 14.4399C5.92676 13.4407 5.36914 12.0889 5.36914 10.6799C5.36914 9.271 5.92676 7.91919 6.92017 6.91992C7.91943 5.92651 9.27124 5.36914 10.6802 5.36914C12.0891 5.36914 13.4409 5.92651 14.4402 6.91992L25.1067 17.5867C26.1001 18.5859 26.6577 19.9375 26.6577 21.3467C26.6577 22.7556 26.1001 24.1074 25.1067 25.1067ZM18.3601 15.0532C18.2351 15.1772 18.136 15.3247 18.0684 15.4871C18.0005 15.6497 17.9658 15.824 17.9658 16C17.9658 16.176 18.0005 16.3503 18.0684 16.5127C18.136 16.6753 18.2351 16.8228 18.3601 16.9465C18.6099 17.1948 18.948 17.3342 19.3 17.3342C19.6523 17.3342 19.9902 17.1948 20.2402 16.9465C20.3652 16.8228 20.4644 16.6753 20.532 16.5127C20.5996 16.3503 20.6345 16.176 20.6345 16C20.6345 15.824 20.5996 15.6497 20.532 15.4871C20.4644 15.3247 20.3652 15.1772 20.2402 15.0532C19.9902 14.8049 19.6523 14.6655 19.3 14.6655C18.948 14.6655 18.6099 14.8049 18.3601 15.0532ZM15.0535 11.76C14.8052 12.0098 14.6658 12.3477 14.6658 12.7C14.6658 13.0522 14.8052 13.3901 15.0535 13.6399C15.1775 13.7649 15.325 13.864 15.4873 13.9319C15.6499 13.9995 15.8242 14.0344 16.0002 14.0344C16.1763 14.0344 16.3503 13.9995 16.5129 13.9319C16.6753 13.864 16.8228 13.7649 16.9468 13.6399C17.1951 13.3901 17.3345 13.0522 17.3345 12.7C17.3345 12.3477 17.1951 12.0098 16.9468 11.76C16.8228 11.635 16.6753 11.5359 16.5129 11.468C16.3503 11.4004 16.1763 11.3655 16.0002 11.3655C15.8242 11.3655 15.6499 11.4004 15.4873 11.468C15.325 11.5359 15.1775 11.635 15.0535 11.76Z" fill="#159EEC" fill-opacity="1.000000" fill-rule="nonzero"/>
	</g>
</svg>
