<svg width="40.197998" height="38.190002" viewBox="0 0 40.198 38.19" fill="none" xmlns="http://www.w3.org/2000/svg" xmlns:xlink="http://www.w3.org/1999/xlink">
	<desc>
			Created with Pixso.
	</desc>
	<defs/>
	<path id="Vector" d="M25.321 31.5808C25.4919 30.9272 25.3972 30.2294 25.0574 29.6408L23.7761 27.4216C23.4363 26.8331 22.8794 26.402 22.2278 26.2232C21.5764 26.0445 20.8838 26.1327 20.3022 26.4684C15.9167 29.0003 13.3542 24.562 12.073 22.3428C10.7917 20.1236 8.22925 15.6852 12.6147 13.1533C13.1963 12.8175 13.6189 12.2617 13.7898 11.6081C13.9607 10.9545 13.866 10.2567 13.5261 9.66812L12.2449 7.44891C11.905 6.86035 11.3481 6.42926 10.6965 6.25052C10.0452 6.07175 9.35254 6.15994 8.771 6.4957C3.28906 9.66061 1.28125 13.7787 7.6875 24.8747C14.0938 35.9707 18.6641 36.2909 24.146 33.126C24.7275 32.7902 25.1501 32.2344 25.321 31.5808Z" stroke="#1F2B6C" stroke-opacity="1.000000" stroke-width="2.000000" stroke-linejoin="round"/>
	<path id="Vector" d="M35.8157 23.9622C36.9805 19.4989 36.3313 14.7346 34.0112 10.716C31.6912 6.69742 27.8896 3.75323 23.4419 2.5303M29.1023 22.1201C29.4492 20.7945 29.5325 19.4104 29.3472 18.0469C29.1621 16.6834 28.7119 15.3672 28.0227 14.1735C27.3335 12.9798 26.4187 11.9319 25.3306 11.0897C24.2422 10.2476 23.002 9.62766 21.6807 9.26538M22.4248 20.2645C22.6577 19.3714 22.5278 18.4182 22.0635 17.6141C21.5994 16.81 20.8386 16.2208 19.9487 15.9759" stroke="#1F2B6C" stroke-opacity="1.000000" stroke-width="2.000000" stroke-linejoin="round"/>
</svg>
