<svg width="148.498291" height="26.903320" viewBox="0 0 148.498 26.9033" fill="none" xmlns="http://www.w3.org/2000/svg" xmlns:xlink="http://www.w3.org/1999/xlink">
	<desc>
			Created with Pixso.
	</desc>
	<defs/>
	<path d="M148.34 8.54297L145.071 8.54297C143.963 5.10645 141.388 2.9707 137.609 2.9707C132.951 2.9707 129.215 6.65332 129.215 13.4561C129.215 20.25 132.951 23.9326 137.811 23.9326C142.249 23.9326 145.343 20.9707 145.431 16.2686L138.523 16.2686L138.523 13.4561L148.498 13.4561L148.498 16.2686C148.498 22.7461 144.051 26.9033 137.811 26.9033C130.859 26.9033 126.148 21.7354 126.148 13.4561C126.148 5.16797 130.894 0 137.609 0C143.128 0 147.373 3.48047 148.34 8.54297ZM99.9724 13.4033C99.9724 21.5859 95.4724 26.543 87.4919 26.543L79.4148 26.543L79.4148 0.360352L87.8523 0.360352C95.4724 0.360352 99.9724 5.27344 99.9724 13.4033ZM107.771 19.125L105.135 26.543L101.812 26.543L111.428 0.360352L114.697 0.360352L124.312 26.543L120.99 26.543L118.354 19.125L107.771 19.125ZM82.5788 3.17285L82.5788 23.7305L87.2898 23.7305C93.7849 23.7305 96.905 19.793 96.905 13.4033C96.905 7.05762 93.7849 3.17285 87.6413 3.17285L82.5788 3.17285ZM112.957 4.5L108.765 16.3125L117.352 16.3125L113.159 4.5L112.957 4.5Z" fill="#159EEC" fill-opacity="1.000000" fill-rule="evenodd"/>
	<path d="M0 26.543L0 0.360352L3.7793 0.360352L12.6826 22.0957L12.9902 22.0957L21.8848 0.360352L25.6641 0.360352L25.6641 26.543L22.7021 26.543L22.7021 6.65332L22.4473 6.65332L14.2646 26.543L11.3994 26.543L3.2168 6.65332L2.96191 6.65332L2.96191 26.543L0 26.543ZM48.0162 26.543L32.0114 26.543L32.0114 0.360352L47.8141 0.360352L47.8141 3.17285L35.1754 3.17285L35.1754 12.0234L46.9879 12.0234L46.9879 14.8359L35.1754 14.8359L35.1754 23.7305L48.0162 23.7305L48.0162 26.543ZM74.0974 13.4033C74.0974 21.5859 69.5974 26.543 61.6169 26.543L53.5398 26.543L53.5398 0.360352L61.9773 0.360352C69.5974 0.360352 74.0974 5.27344 74.0974 13.4033ZM56.7038 3.17285L56.7038 23.7305L61.4148 23.7305C67.9099 23.7305 71.03 19.793 71.03 13.4033C71.03 7.05762 67.9099 3.17285 61.7663 3.17285L56.7038 3.17285Z" fill="#1F2B6C" fill-opacity="1.000000" fill-rule="evenodd"/>
</svg>
