<svg width="50.000000" height="44.000000" viewBox="0 0 50 44" fill="none" xmlns="http://www.w3.org/2000/svg" xmlns:xlink="http://www.w3.org/1999/xlink">
	<desc>
			Created with Pixso.
	</desc>
	<defs/>
	<path id="Vector" d="M8.45972 21.9877L7.5061 21.9877L25.0122 39.5582L39.3887 25.1288L43.8142 25.1288L25.0122 44L3.86304 22.7976C3.29248 22.225 2.78735 21.6074 2.34717 20.9448C1.90698 20.2822 1.52393 19.5828 1.198 18.8467L7.1394 18.8467L14.0586 11.9264L25.0122 22.8958L32.8362 15.0675L36.626 18.8467L45.3057 18.8467C45.8271 18.0123 46.2266 17.1288 46.5037 16.1963C46.7808 15.2638 46.9194 14.3068 46.9194 13.3252C46.9194 11.9019 46.6545 10.5767 46.1248 9.34973C45.595 8.12268 44.8696 7.05518 43.9487 6.14722C43.0278 5.23926 41.9519 4.52759 40.7212 4.01233C39.4907 3.49695 38.1663 3.23926 36.748 3.23926C35.3789 3.23926 34.1646 3.45605 33.1052 3.88953C32.0457 4.32312 31.0676 4.8916 30.1711 5.59509C29.2747 6.29858 28.4148 7.09607 27.5918 7.98767C26.7686 8.87939 25.9087 9.7832 25.0122 10.6993C24.1321 9.81592 23.2764 8.92432 22.4451 8.02454C21.6138 7.12476 20.7456 6.31494 19.8411 5.59509C18.9365 4.87524 17.9502 4.28625 16.8826 3.82825C15.8149 3.37012 14.6128 3.14111 13.2764 3.14111C11.8745 3.14111 10.5583 3.40698 9.32764 3.9386C8.09692 4.47034 7.02124 5.19836 6.10034 6.12268C5.1792 7.047 4.45386 8.12683 3.92432 9.36194C3.39453 10.5972 3.12964 11.9182 3.12964 13.3252C3.12964 14.0941 3.21924 14.8876 3.39844 15.7056L0.195557 15.7056C0.114014 15.3129 0.0610352 14.9203 0.0366211 14.5276C0.012207 14.135 0 13.7423 0 13.3497C0 11.501 0.346436 9.76685 1.03906 8.14722C1.73193 6.52759 2.67725 5.11243 3.87524 3.90186C5.07324 2.69116 6.47925 1.73828 8.09302 1.04297C9.70654 0.347656 11.4343 0 13.2764 0C14.6292 0 15.8354 0.155396 16.8948 0.466309C17.9543 0.7771 18.9365 1.20654 19.8411 1.75464C20.7456 2.30261 21.6096 2.96118 22.4329 3.7301C23.2559 4.49902 24.1157 5.34155 25.0122 6.25769C25.9087 5.34155 26.7686 4.49902 27.5918 3.7301C28.4148 2.96118 29.2788 2.30261 30.1833 1.75464C31.0881 1.20654 32.0701 0.7771 33.1296 0.466309C34.189 0.155396 35.3953 0 36.748 0C38.5737 0 40.2935 0.347656 41.907 1.04297C43.5208 1.73828 44.9268 2.68298 46.1248 3.87732C47.3228 5.07153 48.2681 6.47852 48.9609 8.09814C49.6536 9.71777 50 11.4437 50 13.2761C50 14.863 49.7229 16.4049 49.1687 17.9019C48.6145 19.3988 47.824 20.7607 46.7971 21.9877L35.3057 21.9877L32.8362 19.4846L25.0122 27.3619L14.0586 16.3435L8.45972 21.9877Z" fill="#159EEC" fill-opacity="1.000000" fill-rule="nonzero"/>
</svg>
