<svg width="24.000000" height="24.000000" viewBox="0 0 24 24" fill="none" xmlns="http://www.w3.org/2000/svg" xmlns:xlink="http://www.w3.org/1999/xlink">
	<desc>
			Created with Pixso.
	</desc>
	<defs>
		<clipPath id="clip1878_13229">
			<rect id="Frame 397" width="24.000000" height="24.000000" fill="white" fill-opacity="0"/>
		</clipPath>
	</defs>
	<rect id="Frame 397" width="24.000000" height="24.000000" fill="#FFFFFF" fill-opacity="0"/>
	<g clip-path="url(#clip1878_13229)">
		<path id="pngwing 2 (Traced)" d="M11.87 6.58C7.16 8.55 3.27 10.19 3.22 10.22C3.1 10.31 3 10.5 3 10.64C3 10.8 3.08 10.99 3.19 11.07C3.25 11.11 4.22 11.52 5.35 11.98C6.48 12.44 7.43 12.83 7.45 12.85C7.47 12.88 7.84 14.13 8.27 15.64C8.7 17.15 9.08 18.45 9.11 18.52C9.14 18.59 9.21 18.68 9.27 18.72C9.39 18.8 9.64 18.81 9.76 18.75C9.8 18.72 10.34 18.25 10.96 17.7C12.32 16.51 12.27 16.54 12.46 16.5C12.75 16.43 12.8 16.46 14.5 17.8C17.49 20.15 17.27 19.99 17.46 19.99C17.66 19.99 17.79 19.9 17.89 19.7C17.98 19.51 21.02 3.58 21 3.43C20.95 3.2 20.73 2.99 20.51 3C20.47 3 16.58 4.61 11.87 6.58ZM17.1 6.55C17.12 6.58 17.14 6.62 17.14 6.66C17.14 6.69 15.85 8.02 14.26 9.62C10.42 13.49 10.27 13.65 10.16 13.84C10.03 14.09 9.98 14.34 9.85 15.34C9.79 15.86 9.72 16.29 9.69 16.34C9.64 16.43 9.5 16.45 9.4 16.39C9.38 16.37 9.15 15.58 8.9 14.63C8.41 12.79 8.38 12.63 8.5 12.33C8.53 12.26 8.61 12.14 8.67 12.07C8.81 11.93 16.93 6.51 17 6.5C17.03 6.5 17.07 6.52 17.1 6.55Z" fill="#3B3B3B" fill-opacity="1.000000" fill-rule="evenodd"/>
	</g>
</svg>
