<svg width="24.000000" height="24.000000" viewBox="0 0 24 24" fill="none" xmlns="http://www.w3.org/2000/svg" xmlns:xlink="http://www.w3.org/1999/xlink">
	<desc>
			Created with Pixso.
	</desc>
	<defs>
		<clipPath id="clip1878_13241">
			<rect id="Frame 398" width="24.000000" height="24.000000" fill="white" fill-opacity="0"/>
		</clipPath>
	</defs>
	<g clip-path="url(#clip1878_13241)">
		<path id="1200px-Font_Awesome_5_brands_vk 1 (Traced)" d="M3.46 7C3.37 7.01 3.25 7.05 3.19 7.09C2.96 7.23 2.94 7.5 3.1 8.13C3.39 9.26 4.09 10.78 4.99 12.23C5.35 12.81 5.98 13.72 6.29 14.1C6.84 14.8 7.5 15.41 8.17 15.86C9.1 16.49 10.05 16.85 11.08 16.98C11.32 17 12 17 12.22 16.97C12.62 16.91 12.83 16.79 12.9 16.56C12.93 16.49 12.93 16.39 12.93 15.49C12.93 14.47 12.94 14.38 12.99 14.21C13.02 14.11 13.11 14.04 13.21 14.02C13.32 14 13.5 14 13.61 14.02C13.91 14.09 14.33 14.35 14.82 14.78C15.11 15.02 15.66 15.58 16.09 16.05C16.74 16.75 16.89 16.88 17.17 16.97C17.26 16.99 17.34 17 18.38 17C19.58 17 19.58 17 19.74 16.92C19.84 16.87 19.92 16.79 19.96 16.7C20.01 16.58 20.01 16.37 19.95 16.2C19.74 15.59 18.96 14.62 17.44 13.08C17.11 12.75 17.04 12.66 16.97 12.52C16.91 12.38 16.91 12.27 17 12.11C17.03 12.04 17.15 11.85 17.26 11.7C18.13 10.46 18.97 9.12 19.32 8.41C19.69 7.65 19.75 7.27 19.49 7.1C19.34 7 19.38 7 18.13 7C17.08 7 17 7 16.92 7.03C16.78 7.07 16.66 7.14 16.57 7.23C16.47 7.34 16.44 7.39 16.28 7.75C15.76 8.93 14.99 10.21 14.33 11.01C14.02 11.38 13.7 11.68 13.48 11.79C13.38 11.84 13.24 11.86 13.17 11.84C13.11 11.82 13.02 11.72 12.98 11.62C12.95 11.55 12.94 11.5 12.94 9.51C12.93 7.6 12.93 7.46 12.9 7.36C12.85 7.16 12.73 7.04 12.56 7.01C12.5 7 11.94 6.99 10.91 7L9.35 7L9.28 7.04C9.19 7.08 9.1 7.16 9.05 7.24C9.03 7.29 9.02 7.33 9.02 7.42C9.02 7.57 9.05 7.62 9.22 7.85C9.52 8.22 9.64 8.47 9.71 8.89C9.75 9.07 9.75 9.09 9.75 10.65C9.75 12.08 9.74 12.23 9.72 12.33C9.67 12.53 9.61 12.61 9.46 12.63C9 12.69 8.09 11.55 7.23 9.84C6.87 9.11 6.64 8.59 6.34 7.74C6.16 7.24 5.99 7.06 5.68 7.01C5.58 6.99 3.56 6.99 3.46 7Z" fill="#3B3B3B" fill-opacity="1.000000" fill-rule="evenodd"/>
	</g>
</svg>
