<svg width="17.500000" height="11.785278" viewBox="0 0 17.5 11.7853" fill="none" xmlns="http://www.w3.org/2000/svg" xmlns:xlink="http://www.w3.org/1999/xlink">
	<desc>
			Created with Pixso.
	</desc>
	<defs/>
	<path id="Vector" d="M0.851074 5.58301C0.786987 5.67603 0.751831 5.78589 0.750122 5.8988C0.748291 6.01184 0.780151 6.12268 0.841431 6.21765C2.56848 8.92114 5.3855 11.0353 8.73755 11.0353C12.0531 11.0353 14.928 8.91467 16.6583 6.20508C16.7181 6.11206 16.75 6.00378 16.75 5.89319C16.75 5.78259 16.7181 5.67419 16.6583 5.58118C14.9241 2.90271 12.0281 0.75 8.73755 0.75C5.9541 0.75 3.09888 2.36096 0.851074 5.58301Z" stroke="#526AE9" stroke-opacity="1.000000" stroke-width="1.500000" stroke-linejoin="round"/>
	<path id="Vector" d="M8.74963 8.74963C7.17175 8.74963 5.89258 7.47058 5.89258 5.8927C5.89258 4.31482 7.17175 3.03564 8.74963 3.03564C10.3275 3.03564 11.6066 4.31482 11.6066 5.8927C11.6066 7.47058 10.3275 8.74963 8.74963 8.74963Z" stroke="#526AE9" stroke-opacity="1.000000" stroke-width="1.500000"/>
</svg>
