<svg width="16.000000" height="14.193726" viewBox="0 0 16 14.1937" fill="none" xmlns="http://www.w3.org/2000/svg" xmlns:xlink="http://www.w3.org/1999/xlink">
	<desc>
			Created with Pixso.
	</desc>
	<defs/>
	<path id="Vector" d="M14.5413 1.50366C13.693 0.653198 12.5686 0.134155 11.3712 0.0401611C10.1737 -0.0537109 8.98206 0.283691 8.0116 0.991455C6.99353 0.234253 5.7262 -0.109131 4.46509 0.0305176C3.20386 0.170166 2.04248 0.782471 1.21472 1.74414C0.386841 2.70581 -0.0457764 3.94543 0.00378418 5.21338C0.0534668 6.48132 0.581543 7.68335 1.48193 8.57739L6.45129 13.5547C6.86731 13.9642 7.42773 14.1937 8.0116 14.1937C8.59546 14.1937 9.15588 13.9642 9.57202 13.5547L14.5413 8.57739C15.4756 7.63745 16 6.36584 16 5.04053C16 3.71521 15.4756 2.44373 14.5413 1.50366ZM13.413 7.47314L8.44373 12.4424C8.38721 12.4995 8.31995 12.5448 8.24573 12.5758C8.17151 12.6067 8.09204 12.6227 8.0116 12.6227C7.93127 12.6227 7.85168 12.6067 7.77759 12.5758C7.70337 12.5448 7.63611 12.4995 7.57947 12.4424L2.61023 7.4491C1.98267 6.80762 1.63135 5.94592 1.63135 5.04858C1.63135 4.15112 1.98267 3.28943 2.61023 2.64795C3.24976 2.0166 4.11218 1.66248 5.01086 1.66248C5.90955 1.66248 6.77197 2.0166 7.4115 2.64795C7.48584 2.7229 7.57434 2.78247 7.67188 2.82312C7.76941 2.86377 7.87402 2.88464 7.97961 2.88464C8.08521 2.88464 8.18982 2.86377 8.28735 2.82312C8.38489 2.78247 8.47339 2.7229 8.54773 2.64795C9.18726 2.0166 10.0497 1.66248 10.9484 1.66248C11.847 1.66248 12.7095 2.0166 13.349 2.64795C13.9851 3.28101 14.3481 4.13806 14.3601 5.03552C14.3721 5.93286 14.0321 6.79932 13.413 7.4491L13.413 7.47314Z" fill="#E2315C" fill-opacity="1.000000" fill-rule="nonzero"/>
</svg>
